<svg width="80" height="80" viewBox="0 0 80 80" fill="none" xmlns="http://www.w3.org/2000/svg">
<path d="M80 40C80 62.0913 62.0913 80 40 80C17.9086 80 0 62.0913 0 40C0 17.9086 17.9086 0 40 0C62.0913 0 80 17.9086 80 40ZM7.29756 40C7.29756 58.0611 21.9389 72.7025 40 72.7025C58.0611 72.7025 72.7025 58.0611 72.7025 40C72.7025 21.9389 58.0611 7.29756 40 7.29756C21.9389 7.29756 7.29756 21.9389 7.29756 40Z" fill="white"/>
<path d="M40 14.5455C37.9916 14.5455 36.3636 16.1736 36.3636 18.1819V41.6972C36.3636 41.6972 36.3636 42.6452 36.8244 43.3583C37.1327 43.963 37.6134 44.4884 38.2451 44.8532L55.0443 54.5524C56.7836 55.5564 59.0076 54.9604 60.0116 53.2212C61.0156 51.4819 60.42 49.2579 58.6807 48.2539L43.6364 39.5681V18.1819C43.6364 16.1736 42.0084 14.5455 40 14.5455Z" fill="white"/>
</svg>
