<svg width="80" height="80" viewBox="0 0 80 80" fill="none" xmlns="http://www.w3.org/2000/svg">
<path fill-rule="evenodd" clip-rule="evenodd" d="M60.5315 68.1992C62.637 64.6192 63.8685 60.46 63.8685 56C63.8685 49.308 61.1472 35.1077 56.7614 22.6797C61.3459 18.2517 65.7199 14.7524 68.8265 13.4004C69.8912 12.9364 71.1505 13.5205 71.4643 14.6445C74.0546 23.8565 69.6568 60.4512 60.5315 68.1992ZM51.0924 67.4472C45.1055 73.3152 35.7577 73.3635 29.6556 68.0195C26.3066 65.0835 24.1415 60.812 24.1415 56C24.1415 44.06 32.365 16.5749 38.5823 9.46288C39.3371 8.59889 40.7117 8.58717 41.4705 9.45117C47.6798 16.5272 55.9232 43.828 55.9232 56C55.9232 60.488 54.064 64.5392 51.0924 67.4472ZM18.2341 65.539C12.0247 58.811 6.49074 24.5402 9.22794 14.6562C9.53781 13.5282 10.8051 12.9362 11.8698 13.4082C14.8811 14.7362 19.0524 18.1124 23.5257 22.4004C19.6086 33.4004 13.4629 54.447 18.2341 65.539ZM71.2023 4.79101C66.3516 4.79101 59.9555 8.93149 53.5674 14.6875C49.7218 6.2435 45.0578 0 40.0323 0C35.0505 0 30.4263 6.11926 26.6046 14.4473C21.6546 10.0233 12.2472 2.56364 6.26828 5.43164C-5.61806 11.1276 2.03735 54.3406 7.69449 66.3086C11.7745 74.9406 20.3078 79.992 28.2533 80H47.6718V79.9668C59.1331 80.2148 67.5315 74.2525 71.2897 66.3086C77.2686 53.6646 87.5102 4.79101 71.2023 4.79101Z" fill="white"/>
</svg>
