<svg width="41" height="41" viewBox="0 0 41 41" fill="none" xmlns="http://www.w3.org/2000/svg">
<g clip-path="url(#clip0_140_967)">
<path fill-rule="evenodd" clip-rule="evenodd" d="M20.5 41C31.8218 41 41 31.8218 41 20.5C41 9.17816 31.8218 0 20.5 0C9.17816 0 0 9.17816 0 20.5C0 31.8218 9.17816 41 20.5 41ZM28.2222 31C18.7107 31 11 23.2893 11 13.7778C11 13.3486 11.0157 12.9232 11.0465 12.5019C11.0819 12.0185 11.0996 11.7767 11.2263 11.5567C11.3313 11.3745 11.5172 11.2016 11.7066 11.1103C11.9353 11 12.2021 11 12.7356 11H15.8659C16.3145 11 16.5388 11 16.7311 11.0738C16.901 11.1391 17.0522 11.245 17.1716 11.3823C17.3067 11.5378 17.3833 11.7486 17.5366 12.1701L18.8323 15.7334C19.0105 16.2234 19.0999 16.4693 19.0848 16.7019C19.0714 16.9071 19.0013 17.1045 18.8824 17.2723C18.7476 17.4625 18.5238 17.5968 18.0763 17.8654L16.5556 18.7778C17.891 21.721 20.2779 24.111 23.2222 25.4444L24.1347 23.9238C24.4032 23.4763 24.5375 23.2523 24.7277 23.1176C24.8954 22.9987 25.0929 22.9286 25.2981 22.9152C25.5307 22.9001 25.7759 22.9893 26.2661 23.1675L29.8298 24.4633C30.251 24.6164 30.4623 24.6934 30.6177 24.8284C30.755 24.9478 30.861 25.099 30.9261 25.2689C31 25.4611 31 25.6854 31 26.1341V29.2644C31 29.7979 31 30.0647 30.8897 30.2933C30.7983 30.4828 30.6256 30.6688 30.4433 30.7737C30.2233 30.9003 29.9818 30.918 29.4988 30.9534C29.0775 30.9843 28.6513 31 28.2222 31Z" fill="white"/>
</g>
<defs>
<clipPath id="clip0_140_967">
<rect width="41" height="41" fill="white"/>
</clipPath>
</defs>
</svg>
