<svg width="42" height="42" viewBox="0 0 42 42" fill="none" xmlns="http://www.w3.org/2000/svg">
<path d="M21 0.166748C9.54163 0.166748 0.166626 9.54175 0.166626 21.0001C0.166626 32.4584 9.54163 41.8334 21 41.8334C32.4583 41.8334 41.8333 32.4584 41.8333 21.0001C41.8333 9.54175 32.4583 0.166748 21 0.166748ZM31.2083 12.8751L27.6666 29.9584C27.4583 31.2084 26.625 31.4167 25.7916 30.7917L20.375 26.6251C19.125 27.8751 17.875 28.9167 17.6666 29.3334C17.25 29.5417 17.0416 29.9584 16.625 29.9584C16 29.9584 16 29.5417 15.7916 29.1251L13.9166 22.8751L8.29163 21.0001C7.04163 20.5834 7.04163 19.7501 8.49996 19.1251L29.75 11.0001C30.5833 10.7917 31.625 11.2084 31.2083 12.8751ZM26.2083 14.7501L14.3333 22.2501L16.2083 28.5001L16.625 24.3334L26.8333 15.1667C27.4583 14.5417 27.0416 14.5417 26.2083 14.7501Z" fill="white"/>
</svg>
