<svg width="42" height="42" viewBox="0 0 42 42" fill="none" xmlns="http://www.w3.org/2000/svg">
<path d="M27.4019 0.166748H14.6197C2.94436 0.166748 0.166626 2.94448 0.166626 14.5981V27.3803C0.166626 39.0556 2.92275 41.8334 14.598 41.8334H27.3802C39.0556 41.8334 41.8333 39.0773 41.8333 27.4019V14.6199C41.8333 2.94448 39.0772 0.166748 27.4019 0.166748ZM33.8037 29.8976H30.7656C29.6155 29.8976 29.2682 28.9644 27.2066 26.9028C25.4053 25.1667 24.6458 24.9497 24.1901 24.9497C23.5608 24.9497 23.3871 25.1233 23.3871 25.9913V28.7257C23.3871 29.4636 23.1484 29.8976 21.217 29.8976C19.3428 29.7717 17.5254 29.2023 15.9143 28.2364C14.3032 27.2706 12.9447 25.9358 11.9505 24.342C9.59028 21.4043 7.9481 17.9565 7.15452 14.2726C7.15452 13.8169 7.32808 13.4045 8.19619 13.4045H11.2343C12.0156 13.4045 12.2977 13.7518 12.6015 14.5548C14.0772 18.895 16.5946 22.671 17.6145 22.671C18.0052 22.671 18.1787 22.4975 18.1787 21.5209V17.0503C18.0485 15.0105 16.9635 14.8368 16.9635 14.099C16.9778 13.9044 17.0674 13.723 17.2132 13.5933C17.3591 13.4636 17.5498 13.3959 17.7447 13.4045H22.5191C23.1701 13.4045 23.3871 13.73 23.3871 14.5113V20.5443C23.3871 21.1954 23.6692 21.4123 23.8645 21.4123C24.2552 21.4123 24.5589 21.1954 25.2751 20.4792C26.814 18.6025 28.0714 16.5117 29.0078 14.2726C29.1033 14.0032 29.2845 13.7725 29.5235 13.6157C29.7626 13.4589 30.0464 13.3848 30.3316 13.4045H33.3697C34.2812 13.4045 34.4765 13.8602 34.2812 14.5113C33.1757 16.9869 31.808 19.3369 30.2014 21.5209C29.8759 22.02 29.7457 22.2804 30.2014 22.8663C30.5052 23.3221 31.5686 24.2118 32.2847 25.0582C33.3264 26.0972 34.1913 27.2994 34.8454 28.6173C35.1058 29.4636 34.6718 29.8976 33.8037 29.8976Z" fill="white"/>
</svg>
