<svg width="80" height="81" viewBox="0 0 80 81" fill="none" xmlns="http://www.w3.org/2000/svg">
<path d="M71.3285 15.6587L65.3199 20.1651C63.9016 21.2288 62.1769 21.8038 60.4038 21.8038H46.6458C44.198 21.8038 41.9599 23.1869 40.8653 25.3764C39.5142 28.0784 40.2151 31.3557 42.5531 33.2689L50.7466 39.9723C57.1944 45.2481 60.5312 53.4305 59.6115 61.7108L59.4218 63.4171C59.167 65.7113 58.6705 67.9718 57.9404 70.1615L56.99 73.0128" stroke="white" stroke-width="8.33684"/>
<path d="M1.6842 34.0939L14.9498 31.883C20.4953 30.9587 25.303 35.7666 24.3788 41.3119L23.8277 44.6184C22.8411 50.5382 25.8307 56.4092 31.1985 59.0929C35.4965 61.2421 37.7256 66.0881 36.56 70.7498L34.458 79.1579" stroke="white" stroke-width="8.33684"/>
<circle cx="40" cy="40" r="35.3105" stroke="white" stroke-width="9.37895"/>
</svg>
